<svg width="353" height="263" viewBox="0 0 353 263" fill="none" xmlns="http://www.w3.org/2000/svg">
<path d="M50.5967 137.209C41.7276 137.209 33.78 135.77 26.7538 132.89C19.7277 130.01 14.0837 125.749 9.82195 120.105C5.67536 114.461 3.48689 107.665 3.25652 99.7174H34.7014C35.1622 104.21 36.7171 107.665 39.3664 110.084C42.0156 112.388 45.471 113.539 49.7328 113.539C54.1098 113.539 57.5652 112.56 60.0993 110.602C62.6333 108.529 63.9003 105.707 63.9003 102.136C63.9003 99.1415 62.8637 96.665 60.7904 94.7069C58.8323 92.7488 56.3558 91.1363 53.3611 89.8693C50.4815 88.6022 46.3349 87.1625 40.9213 85.5499C33.0889 83.1311 26.6962 80.7122 21.7434 78.2934C16.7905 75.8745 12.5287 72.3039 8.95807 67.5814C5.3874 62.8589 3.60207 56.6966 3.60207 49.0945C3.60207 37.8066 7.69106 28.9951 15.869 22.6601C24.047 16.2098 34.7014 12.9847 47.8323 12.9847C61.1935 12.9847 71.9631 16.2098 80.1411 22.6601C88.3191 28.9951 92.696 37.8642 93.2719 49.2673H61.3087C61.0783 45.3511 59.6385 42.2987 56.9893 40.1103C54.3401 37.8066 50.9422 36.6548 46.7956 36.6548C43.225 36.6548 40.3454 37.6338 38.1569 39.5919C35.9685 41.4349 34.8742 44.1417 34.8742 47.7123C34.8742 51.6285 36.7171 54.6809 40.403 56.8694C44.0888 59.0578 49.848 61.4191 57.6804 63.9531C65.5129 66.6023 71.8479 69.1363 76.6856 71.5552C81.6385 73.974 85.9002 77.4871 89.4709 82.0944C93.0416 86.7017 94.8269 92.6336 94.8269 99.8902C94.8269 106.801 93.0416 113.079 89.4709 118.723C86.0154 124.367 80.9474 128.859 74.2668 132.199C67.5862 135.539 59.6961 137.209 50.5967 137.209ZM156.893 137.382C147.448 137.382 138.925 135.366 131.323 131.335C123.836 127.304 117.904 121.545 113.527 114.058C109.265 106.571 107.134 97.8169 107.134 87.796C107.134 77.8902 109.323 69.1939 113.7 61.707C118.077 54.105 124.066 48.2882 131.668 44.2568C139.27 40.2254 147.794 38.2097 157.239 38.2097C166.684 38.2097 175.207 40.2254 182.81 44.2568C190.412 48.2882 196.401 54.105 200.778 61.707C205.155 69.1939 207.343 77.8902 207.343 87.796C207.343 97.7017 205.097 106.456 200.605 114.058C196.228 121.545 190.181 127.304 182.464 131.335C174.862 135.366 166.338 137.382 156.893 137.382ZM156.893 111.812C162.537 111.812 167.317 109.738 171.234 105.592C175.265 101.445 177.281 95.5132 177.281 87.796C177.281 80.0787 175.323 74.1468 171.406 70.0002C167.605 65.8536 162.883 63.7803 157.239 63.7803C151.48 63.7803 146.7 65.8536 142.899 70.0002C139.098 74.0316 137.197 79.9635 137.197 87.796C137.197 95.5132 139.04 101.445 142.726 105.592C146.527 109.738 151.249 111.812 156.893 111.812ZM271.394 64.1259H255.499V136H225.954V64.1259H215.242V39.5919H225.954V36.8275C225.954 24.9637 229.352 15.9794 236.148 9.87475C242.944 3.65488 252.907 0.544936 266.038 0.544936C268.227 0.544936 269.839 0.602527 270.876 0.717708V25.77C265.232 25.4244 261.258 26.2307 258.954 28.1888C256.651 30.1469 255.499 33.66 255.499 38.7281V39.5919H271.394V64.1259ZM339.01 110.948V136H323.978C313.266 136 304.916 133.408 298.926 128.225C292.936 122.927 289.942 114.346 289.942 102.482V64.1259H278.193V39.5919H289.942V16.0946H319.486V39.5919H338.837V64.1259H319.486V102.827C319.486 105.707 320.177 107.78 321.559 109.047C322.942 110.314 325.245 110.948 328.47 110.948H339.01ZM0.449992 213.533C0.449992 204.184 2.47272 195.868 6.51816 188.586C10.5636 181.215 16.1823 175.506 23.3742 171.461C30.656 167.325 38.8817 165.258 48.0514 165.258C59.2888 165.258 68.908 168.224 76.909 174.158C84.9099 180.091 90.2589 188.182 92.9559 198.43H67.6044C65.7166 194.475 63.0196 191.463 59.5135 189.396C56.0974 187.328 52.1868 186.294 47.7817 186.294C40.6797 186.294 34.9262 188.766 30.5212 193.711C26.1161 198.655 23.9136 205.263 23.9136 213.533C23.9136 221.804 26.1161 228.412 30.5212 233.356C34.9262 238.301 40.6797 240.773 47.7817 240.773C52.1868 240.773 56.0974 239.739 59.5135 237.671C63.0196 235.604 65.7166 232.592 67.6044 228.636H92.9559C90.2589 238.885 84.9099 246.976 76.909 252.909C68.908 258.753 59.2888 261.674 48.0514 261.674C38.8817 261.674 30.656 259.652 23.3742 255.606C16.1823 251.471 10.5636 245.762 6.51816 238.48C2.47272 231.199 0.449992 222.883 0.449992 213.533ZM102.492 223.242C102.492 215.511 103.931 208.724 106.807 202.88C109.774 197.037 113.774 192.542 118.809 189.396C123.843 186.249 129.462 184.676 135.665 184.676C140.969 184.676 145.599 185.755 149.554 187.912C153.6 190.07 156.701 192.902 158.859 196.408V185.755H181.918V261H158.859V250.347C156.611 253.853 153.465 256.685 149.419 258.842C145.464 261 140.834 262.079 135.53 262.079C129.417 262.079 123.843 260.506 118.809 257.359C113.774 254.123 109.774 249.583 106.807 243.739C103.931 237.806 102.492 230.974 102.492 223.242ZM158.859 223.377C158.859 217.624 157.241 213.084 154.004 209.758C150.858 206.431 146.992 204.768 142.407 204.768C137.822 204.768 133.912 206.431 130.675 209.758C127.529 212.994 125.956 217.489 125.956 223.242C125.956 228.996 127.529 233.581 130.675 236.997C133.912 240.323 137.822 241.986 142.407 241.986C146.992 241.986 150.858 240.323 154.004 236.997C157.241 233.671 158.859 229.131 158.859 223.377ZM244.583 261L221.659 229.446V261H198.6V161.212H221.659V216.365L244.448 185.755H272.901L241.617 223.512L273.171 261H244.583ZM352.889 222.164C352.889 224.321 352.754 226.569 352.484 228.906H300.298C300.657 233.581 302.141 237.177 304.748 239.694C307.445 242.121 310.726 243.335 314.592 243.335C320.345 243.335 324.346 240.908 326.593 236.053H351.136C349.877 240.998 347.585 245.448 344.258 249.403C341.022 253.359 336.932 256.46 331.987 258.708C327.043 260.955 321.514 262.079 315.401 262.079C308.029 262.079 301.466 260.506 295.713 257.359C289.959 254.213 285.464 249.718 282.228 243.874C278.992 238.031 277.374 231.199 277.374 223.377C277.374 215.556 278.947 208.724 282.093 202.88C285.33 197.037 289.825 192.542 295.578 189.396C301.332 186.249 307.939 184.676 315.401 184.676C322.683 184.676 329.155 186.204 334.819 189.261C340.483 192.317 344.888 196.677 348.034 202.341C351.27 208.005 352.889 214.612 352.889 222.164ZM329.29 216.096C329.29 212.14 327.942 208.994 325.245 206.656C322.548 204.319 319.176 203.15 315.131 203.15C311.265 203.15 307.984 204.274 305.287 206.521C302.68 208.769 301.062 211.96 300.433 216.096H329.29Z" fill="#00A8A8"/>
</svg>
