<svg width="50" height="59" viewBox="0 0 50 59" fill="none" xmlns="http://www.w3.org/2000/svg">
<path fill-rule="evenodd" clip-rule="evenodd" d="M14 0C6.26801 0 0 6.26801 0 14V36C0 43.732 6.26801 50 14 50H18.0718L24.2076 57.9706C24.6079 58.4906 25.3921 58.4906 25.7924 57.9706L31.9282 50H36C43.732 50 50 43.732 50 36V14C50 6.26801 43.732 0 36 0H14Z" fill="#00A8A8"/>
<path d="M24.992 9C23.452 9 22.434 10.082 21.856 11.054C21.268 12.04 20.956 13.194 20.914 13.938C20.832 15.418 21.054 16.714 21.792 17.65C22.56 18.626 23.712 19 24.992 19C26.29 19 27.438 18.582 28.202 17.606C28.94 16.662 29.178 15.376 29.082 13.928C29.036 13.224 28.72 12.076 28.134 11.086C27.56 10.116 26.542 9 24.994 9H24.992ZM22.912 14.048C22.932 13.642 23.144 12.8 23.574 12.076C24.014 11.34 24.504 11 24.994 11C25.472 11 25.964 11.344 26.414 12.102C26.848 12.842 27.064 13.688 27.088 14.058C27.166 15.258 26.94 15.974 26.628 16.374C26.342 16.738 25.858 17 24.992 17C24.092 17 23.628 16.75 23.364 16.412C23.064 16.032 22.84 15.324 22.91 14.048H22.912Z" fill="#FCFCFC"/>
<path d="M15 21.0161C13.9391 21.0161 12.9217 21.4375 12.1716 22.1877C11.4214 22.9378 11 23.9552 11 25.0161V37.0161H10C9.73478 37.0161 9.48043 37.1215 9.29289 37.309C9.10536 37.4965 9 37.7509 9 38.0161C9 38.2813 9.10536 38.5357 9.29289 38.7232C9.48043 38.9108 9.73478 39.0161 10 39.0161H40C40.2652 39.0161 40.5196 38.9108 40.7071 38.7232C40.8946 38.5357 41 38.2813 41 38.0161C41 37.7509 40.8946 37.4965 40.7071 37.309C40.5196 37.1215 40.2652 37.0161 40 37.0161H39V25.0161C39 23.9552 38.5786 22.9378 37.8284 22.1877C37.0783 21.4375 36.0609 21.0161 35 21.0161H15ZM37 37.0161H13V29.2521L16.09 32.0121C16.4823 32.3629 16.94 32.6329 17.4368 32.8066C17.9336 32.9802 18.4598 33.0541 18.9852 33.024C19.5107 32.9939 20.025 32.8604 20.4987 32.6312C20.9725 32.4019 21.3963 32.0815 21.746 31.6881L23.506 29.7081C23.6936 29.497 23.9239 29.328 24.1816 29.2122C24.4392 29.0965 24.7185 29.0366 25.001 29.0366C25.2835 29.0366 25.5628 29.0965 25.8204 29.2122C26.0781 29.328 26.3084 29.497 26.496 29.7081L28.254 31.6881C28.6036 32.0819 29.0274 32.4028 29.5013 32.6324C29.9751 32.8619 30.4896 32.9957 31.0153 33.026C31.541 33.0563 32.0675 32.9825 32.5645 32.8089C33.0616 32.6352 33.5195 32.3651 33.912 32.0141L37 29.2521V37.0161ZM37 26.5681L32.578 30.5221C32.3819 30.6975 32.153 30.8325 31.9046 30.9193C31.6562 31.0062 31.3931 31.0431 31.1304 31.028C30.8677 31.013 30.6105 30.9462 30.3736 30.8316C30.1368 30.717 29.9248 30.5568 29.75 30.3601L27.99 28.3801C27.6147 27.9578 27.1542 27.6198 26.6389 27.3883C26.1235 27.1568 25.565 27.0372 25 27.0372C24.435 27.0372 23.8765 27.1568 23.3611 27.3883C22.8458 27.6198 22.3853 27.9578 22.01 28.3801L20.25 30.3601C20.0752 30.5568 19.8632 30.717 19.6264 30.8316C19.3895 30.9462 19.1323 31.013 18.8696 31.028C18.6069 31.0431 18.3438 31.0062 18.0954 30.9193C17.847 30.8325 17.6181 30.6975 17.422 30.5221L13 26.5681V25.0161C13 24.4857 13.2107 23.977 13.5858 23.6019C13.9609 23.2268 14.4696 23.0161 15 23.0161H35C35.5304 23.0161 36.0391 23.2268 36.4142 23.6019C36.7893 23.977 37 24.4857 37 25.0161V26.5681Z" fill="#FCFCFC"/>
</svg>
