<svg width="34" height="35" viewBox="0 0 34 35" fill="none" xmlns="http://www.w3.org/2000/svg">
<path d="M0.342773 5.70313C0.342773 2.9417 2.58135 0.703125 5.34277 0.703125H28.3428C31.1042 0.703125 33.3428 2.9417 33.3428 5.70312V29.7031C33.3428 32.4645 31.1042 34.7031 28.3428 34.7031H5.34277C2.58135 34.7031 0.342773 32.4645 0.342773 29.7031V5.70313Z" fill="#00A8A8"/>
<path d="M25.6889 10.4034H25.1889V10.9034V27.1034C25.1889 27.9283 24.8667 28.7177 24.2959 29.2985C23.7254 29.8789 22.9534 30.2034 22.1504 30.2034H11.535C10.732 30.2034 9.96005 29.8789 9.38954 29.2985C8.81874 28.7177 8.49656 27.9283 8.49656 27.1034V10.9034V10.4034H7.99656H7.11194C6.77813 10.4034 6.45621 10.2685 6.2175 10.0257C5.97849 9.78251 5.84271 9.45091 5.84271 9.10337V7.30337C5.84271 6.95583 5.97849 6.62423 6.2175 6.38107C6.45621 6.1382 6.77813 6.00337 7.11194 6.00337H13.3043H13.8043V5.50337C13.8043 5.15583 13.94 4.82423 14.179 4.58107C14.4178 4.3382 14.7397 4.20337 15.0735 4.20337H18.6119C18.9458 4.20337 19.2677 4.3382 19.5064 4.58107C19.7454 4.82423 19.8812 5.15583 19.8812 5.50337V6.00337H20.3812H26.5735C26.9073 6.00337 27.2292 6.1382 27.4679 6.38107C27.7069 6.62423 27.8427 6.95583 27.8427 7.30337V9.10337C27.8427 9.4509 27.7069 9.78251 27.4679 10.0257C27.2292 10.2685 26.9073 10.4034 26.5735 10.4034H25.6889ZM9.97456 10.4034H9.85469L9.74786 10.4577L9.53909 10.5639L9.26579 10.7029V11.0096V27.1034C9.26579 27.7106 9.50281 28.2947 9.9274 28.7267C10.3523 29.1589 10.9304 29.4034 11.535 29.4034H22.1504C22.755 29.4034 23.3332 29.1589 23.758 28.7267C24.1826 28.2947 24.4196 27.7106 24.4196 27.1034V11.0096V10.7029L24.1463 10.5639L23.9376 10.4577L23.8307 10.4034H23.7109H9.97456ZM6.61194 9.10337V9.60337H7.11194H26.5735H27.0735V9.10337V7.30337V6.80337H26.5735H7.11194H6.61194V7.30337V9.10337Z" fill="#FCFCFC" stroke="white"/>
</svg>
