<svg width="21" height="16" viewBox="0 0 21 16" fill="none" xmlns="http://www.w3.org/2000/svg">
<path d="M19.6364 0H0.727273C0.325 0 0 0.325 0 0.727273V15.2727C0 15.675 0.325 16 0.727273 16H19.6364C20.0386 16 20.3636 15.675 20.3636 15.2727V0.727273C20.3636 0.325 20.0386 0 19.6364 0ZM18.7273 14.3636H1.63636V1.63636H18.7273V14.3636ZM12.4159 7.18182H15.2205C15.25 7.18182 15.2727 7.1 15.2727 7V5.90909C15.2727 5.80909 15.25 5.72727 15.2205 5.72727H12.4159C12.3864 5.72727 12.3636 5.80909 12.3636 5.90909V7C12.3636 7.1 12.3864 7.18182 12.4159 7.18182ZM12.525 10.4545H16.7455C16.8341 10.4545 16.9068 10.3727 16.9068 10.2727V9.18182C16.9068 9.08182 16.8341 9 16.7455 9H12.525C12.4364 9 12.3636 9.08182 12.3636 9.18182V10.2727C12.3636 10.3727 12.4364 10.4545 12.525 10.4545ZM3.63636 11.6591H4.63409C4.72955 11.6591 4.80682 11.5841 4.81364 11.4886C4.9 10.3409 5.85909 9.43182 7.02273 9.43182C8.18636 9.43182 9.14546 10.3409 9.23182 11.4886C9.23864 11.5841 9.31591 11.6591 9.41136 11.6591H10.4091C10.4338 11.6591 10.4582 11.6541 10.4808 11.6444C10.5035 11.6347 10.524 11.6205 10.541 11.6027C10.558 11.5848 10.5712 11.5637 10.5798 11.5406C10.5884 11.5174 10.5921 11.4928 10.5909 11.4682C10.5273 10.2568 9.86364 9.20227 8.89545 8.60227C9.32241 8.13294 9.55833 7.52085 9.55682 6.88636C9.55682 5.47955 8.42273 4.34091 7.025 4.34091C5.62727 4.34091 4.49318 5.47955 4.49318 6.88636C4.49318 7.54773 4.74318 8.14773 5.15455 8.60227C4.66166 8.90771 4.25001 9.3279 3.95477 9.82696C3.65953 10.326 3.48946 10.8891 3.45909 11.4682C3.45 11.5727 3.53182 11.6591 3.63636 11.6591ZM7.02273 5.70455C7.67045 5.70455 8.19773 6.23409 8.19773 6.88636C8.19773 7.53864 7.67045 8.06818 7.02273 8.06818C6.375 8.06818 5.84773 7.53864 5.84773 6.88636C5.84773 6.23409 6.375 5.70455 7.02273 5.70455Z" fill="#00A8A8"/>
</svg>
