<svg width="16" height="19" viewBox="0 0 16 19" fill="none" xmlns="http://www.w3.org/2000/svg">
<path d="M15.2727 8H13.7273V2.90909C13.7273 1.30227 12.425 0 10.8182 0H5.18182C3.575 0 2.27273 1.30227 2.27273 2.90909V8H0.727273C0.325 8 0 8.325 0 8.72727V17.4545C0 17.8568 0.325 18.1818 0.727273 18.1818H15.2727C15.675 18.1818 16 17.8568 16 17.4545V8.72727C16 8.325 15.675 8 15.2727 8ZM3.90909 2.90909C3.90909 2.20682 4.47955 1.63636 5.18182 1.63636H10.8182C11.5205 1.63636 12.0909 2.20682 12.0909 2.90909V8H3.90909V2.90909ZM14.3636 16.5455H1.63636V9.63636H14.3636V16.5455ZM7.36364 13.3864V14.5909C7.36364 14.6909 7.44546 14.7727 7.54545 14.7727H8.45455C8.55455 14.7727 8.63636 14.6909 8.63636 14.5909V13.3864C8.82397 13.2517 8.964 13.0609 9.0363 12.8416C9.10859 12.6222 9.10943 12.3856 9.03868 12.1658C8.96793 11.9459 8.82925 11.7542 8.6426 11.6182C8.45595 11.4822 8.23095 11.4089 8 11.4089C7.76905 11.4089 7.54405 11.4822 7.3574 11.6182C7.17075 11.7542 7.03207 11.9459 6.96132 12.1658C6.89057 12.3856 6.89141 12.6222 6.9637 12.8416C7.036 13.0609 7.17603 13.2517 7.36364 13.3864Z" fill="#00A8A8"/>
</svg>
