<svg width="16" height="17" viewBox="0 0 16 17" fill="none" xmlns="http://www.w3.org/2000/svg">
<path d="M15.3723 13.8532C14.9709 12.9025 14.3885 12.0389 13.6574 11.3106C12.9285 10.5802 12.0651 9.99788 11.1149 9.59575C11.1064 9.59149 11.0979 9.58936 11.0893 9.58511C12.4149 8.62767 13.2766 7.0681 13.2766 5.30854C13.2766 2.39367 10.9149 0.0319824 8 0.0319824C5.08513 0.0319824 2.72344 2.39367 2.72344 5.30854C2.72344 7.0681 3.58514 8.62767 4.91066 9.58723C4.90215 9.59149 4.89364 9.59362 4.88513 9.59787C3.93194 10 3.07663 10.5766 2.34259 11.3128C1.61219 12.0416 1.02984 12.905 0.627709 13.8553C0.232652 14.7856 0.0195891 15.783 5.32039e-05 16.7936C-0.000514675 16.8163 0.00346833 16.8389 0.0117677 16.86C0.020067 16.8812 0.0325146 16.9004 0.0483771 16.9167C0.0642397 16.9329 0.0831961 16.9459 0.104129 16.9547C0.125063 16.9635 0.14755 16.968 0.170265 16.968H1.44685C1.54047 16.968 1.61494 16.8936 1.61706 16.8021C1.65962 15.1595 2.31919 13.6212 3.48514 12.4553C4.69151 11.2489 6.29363 10.5851 8 10.5851C9.70637 10.5851 11.3085 11.2489 12.5149 12.4553C13.6808 13.6212 14.3404 15.1595 14.3829 16.8021C14.3851 16.8957 14.4595 16.968 14.5531 16.968H15.8297C15.8524 16.968 15.8749 16.9635 15.8959 16.9547C15.9168 16.9459 15.9358 16.9329 15.9516 16.9167C15.9675 16.9004 15.9799 16.8812 15.9882 16.86C15.9965 16.8389 16.0005 16.8163 15.9999 16.7936C15.9787 15.7766 15.768 14.7872 15.3723 13.8532ZM8 8.96809C7.02341 8.96809 6.10427 8.58724 5.41278 7.89576C4.7213 7.20427 4.34045 6.28513 4.34045 5.30854C4.34045 4.33195 4.7213 3.41281 5.41278 2.72133C6.10427 2.02984 7.02341 1.64899 8 1.64899C8.97659 1.64899 9.89573 2.02984 10.5872 2.72133C11.2787 3.41281 11.6595 4.33195 11.6595 5.30854C11.6595 6.28513 11.2787 7.20427 10.5872 7.89576C9.89573 8.58724 8.97659 8.96809 8 8.96809Z" fill="#00A8A8"/>
</svg>
